HIERARCHY
ROOT Hips
{
 OFFSET 0.000000 0.000000 0.000000
 CHANNELS 6 Xposition Yposition Zposition Yrotation Xrotation Zrotation
 JOINT Chest
 {
  OFFSET 0.000000 9.585900 0.002600
  CHANNELS 3 Yrotation Xrotation Zrotation
  JOINT Chest2
  {
   OFFSET 0.000000 9.601200 -0.005300
   CHANNELS 3 Yrotation Xrotation Zrotation
   JOINT Chest3
   {
    OFFSET 0.000000 9.561800 0.000000
    CHANNELS 3 Yrotation Xrotation Zrotation
    JOINT Chest4
    {
     OFFSET 0.000000 9.552100 0.000000
     CHANNELS 3 Yrotation Xrotation Zrotation
     JOINT Neck
     {
      OFFSET 0.000000 14.453000 0.000000
      CHANNELS 3 Yrotation Xrotation Zrotation
      JOINT Head
      {
       OFFSET 0.000000 8.936500 -0.011300
       CHANNELS 3 Yrotation Xrotation Zrotation
       End Site
       {
        OFFSET 0.000000 17.073600 -0.006000
       }
      }
     }
     JOINT RightCollar
     {
      OFFSET -2.921100 9.558500 0.000000
      CHANNELS 3 Yrotation Xrotation Zrotation
      JOINT RightShoulder
      {
       OFFSET -13.519700 0.000000 0.000000
       CHANNELS 3 Yrotation Xrotation Zrotation
       JOINT RightElbow
       {
        OFFSET 0.000000 -29.696600 0.000000
        CHANNELS 3 Yrotation Xrotation Zrotation
        JOINT RightWrist
        {
         OFFSET 0.000000 -24.004700 0.000000
         CHANNELS 3 Yrotation Xrotation Zrotation
         End Site
         {
          OFFSET 0.000000 -17.728500 0.000000
         }
        }
       }
      }
     }
     JOINT LeftCollar
     {
      OFFSET 2.921100 9.558500 0.000000
      CHANNELS 3 Yrotation Xrotation Zrotation
      JOINT LeftShoulder
      {
       OFFSET 13.519700 0.000000 0.000000
       CHANNELS 3 Yrotation Xrotation Zrotation
       JOINT LeftElbow
       {
        OFFSET 0.000000 -29.696600 0.000000
        CHANNELS 3 Yrotation Xrotation Zrotation
        JOINT LeftWrist
        {
         OFFSET 0.000000 -24.004700 0.000000
         CHANNELS 3 Yrotation Xrotation Zrotation
         End Site
         {
          OFFSET 0.000000 -17.728500 0.000000
         }
        }
       }
      }
     }
    }
   }
  }
 }
 JOINT RightHip
 {
  OFFSET -7.771700 -0.012900 -0.001300
  CHANNELS 3 Yrotation Xrotation Zrotation
  JOINT RightKnee
  {
   OFFSET 0.000000 -40.869800 0.001200
   CHANNELS 3 Yrotation Xrotation Zrotation
   JOINT RightAnkle
   {
    OFFSET 0.000000 -39.717900 0.002100
    CHANNELS 3 Yrotation Xrotation Zrotation
    JOINT RightToe
    {
     OFFSET 0.000000 -4.965400 11.033500
     CHANNELS 3 Yrotation Xrotation Zrotation
     End Site
     {
      OFFSET 0.000000 -1.423100 5.872300
     }
    }
   }
  }
 }
 JOINT LeftHip
 {
  OFFSET 7.771700 -0.012900 -0.001300
  CHANNELS 3 Yrotation Xrotation Zrotation
  JOINT LeftKnee
  {
   OFFSET 0.000000 -40.869800 0.001200
   CHANNELS 3 Yrotation Xrotation Zrotation
   JOINT LeftAnkle
   {
    OFFSET 0.000000 -39.717900 0.002100
    CHANNELS 3 Yrotation Xrotation Zrotation
    JOINT LeftToe
    {
     OFFSET 0.000000 -4.965400 11.033500
     CHANNELS 3 Yrotation Xrotation Zrotation
     End Site
     {
      OFFSET 0.000000 -1.423100 5.872300
     }
    }
   }
  }
 }
}
MOTION
Frames: 16
Frame Time: 0.008333
0.000000 85.388000 0.000000 0.000000 -5.767877 0.000000 0.000000 11.653817 0.000000 0.000000 -5.885947 0.000000 0.000000 -0.000000 0.000000 0.000000 -0.000000 0.000000 0.000000 12.528835 0.000000 0.000000 0.711642 0.000000 0.000000 -0.000000 0.000000 0.000000 0.000000 -90.000000 0.000000 -2.309062 0.000000 0.000000 2.309062 0.000000 0.000000 -0.000000 0.000000 0.000000 -0.000000 90.000000 0.000000 -2.309062 0.000000 0.000000 2.309062 0.000000 0.000000 8.520406 0.000000 0.000000 1.905762 0.000000 -0.000000 -4.658285 0.000000 0.000000 -0.000000 0.000000 0.000000 8.520406 0.000000 0.000000 1.905762 0.000000 -0.000000 -4.658285 0.000000 0.000000 -0.000000 0.000000
-6.170440 55.398432 27.970298 177.642298 -30.210364 -10.434145 1.088606 15.240211 6.771829 0.455940 8.749592 2.873175 0.641308 10.965093 3.636639 0.466649 8.845964 2.951537 8.213886 25.186094 -1.043932 9.437581 2.323609 -2.953463 -1.055337 3.474404 -2.907266 -12.165881 -8.673515 -0.495569 147.928607 -40.838095 -129.088682 16.468541 -19.058313 -46.346894 -13.043197 5.663348 -2.405369 6.896875 -7.686180 2.812050 -122.801693 -36.690678 142.659593 15.933232 -45.773537 21.572669 -19.206669 -34.831951 8.461871 47.895155 87.613287 44.756722 1.132764 -18.957743 -1.090061 -0.019836 0.525352 -0.004571 -14.633770 -47.798730 17.640041 172.240209 79.079849 167.851283 -1.915938 -16.648679 1.579289 -0.694028 -2.196836 -0.347890
-6.165900 55.400481 27.964405 177.620377 -30.227835 -10.443618 1.113907 15.273327 6.805966 0.461036 8.770984 2.891158 0.643795 10.983066 3.652283 0.458749 8.837213 2.949682 8.257573 25.315833 -1.017900 9.414794 2.305037 -3.016359 -1.051795 3.566876 -2.875832 -12.121750 -8.725041 -0.526686 147.904131 -40.865627 -129.087416 16.468566 -19.039706 -46.357991 -13.068330 5.758831 -2.398431 6.827307 -7.777406 2.803052 -122.800537 -36.774101 142.629902 15.913292 -45.756566 21.495324 -19.191208 -34.807920 8.493724 47.674889 87.620672 44.531551 1.127286 -18.957431 -1.083198 -0.015363 0.524127 -0.005344 -14.617733 -47.771217 17.624222 172.245177 79.077685 167.893289 -1.892415 -16.684890 1.544548 -0.679561 -2.177610 -0.339568
-6.162448 55.401653 27.959171 177.609834 -30.233589 -10.453849 1.126931 15.283603 6.826092 0.450376 8.826535 2.938894 0.642172 11.019046 3.690296 0.456553 8.757643 2.868157 8.286377 25.417292 -0.975348 9.412124 2.339124 -3.056694 -1.045988 3.682757 -2.818934 -12.104747 -8.818470 -0.563493 147.878608 -40.922378 -129.056934 16.467279 -19.022363 -46.357329 -13.079071 5.812630 -2.388850 6.758252 -7.790900 2.819314 -122.779498 -36.835389 142.594191 15.894836 -45.760186 21.419097 -19.193433 -34.795332 8.530764 47.382223 87.634429 44.224662 1.124224 -18.954962 -1.070538 -0.010847 0.519430 -0.007628 -14.619713 -47.774653 17.607854 172.124366 79.054252 167.796332 -1.842006 -16.659535 1.532929 -0.720297 -2.218456 -0.342697
-6.160722 55.401736 27.954972 177.607053 -30.227509 -10.460486 1.125057 15.301112 6.850606 0.441821 8.843111 2.956240 0.645446 11.012990 3.686517 0.457759 8.781812 2.891588 8.277126 25.457839 -1.001396 9.405046 2.329072 -3.097113 -1.041399 3.746262 -2.809529 -12.062430 -8.835863 -0.590202 147.854889 -40.861196 -129.083752 16.428601 -18.976797 -46.314520 -13.102306 5.896020 -2.379394 6.714430 -7.880167 2.783976 -122.740133 -36.876659 142.551770 15.872452 -45.781138 21.347631 -19.204123 -34.795941 8.555637 47.232042 87.645064 44.062820 1.140102 -18.956736 -1.070336 -0.030287 0.518448 -0.007030 -14.627668 -47.776363 17.608864 172.115152 79.048655 167.794611 -1.841394 -16.671230 1.535486 -0.709354 -2.217472 -0.345131
-6.157671 55.402784 27.949780 177.584270 -30.234001 -10.468653 1.138914 15.326267 6.885728 0.445883 8.837285 2.951097 0.648695 11.008808 3.683452 0.454424 8.822270 2.939659 8.261849 25.480267 -1.041644 9.405484 2.340467 -3.122550 -1.033816 3.804344 -2.802668 -12.031455 -8.851204 -0.615059 147.835915 -40.803444 -129.103459 16.391570 -18.935276 -46.259872 -13.121907 5.962209 -2.371022 6.680929 -7.948655 2.744319 -122.689083 -36.898629 142.505839 15.843545 -45.813936 21.282695 -19.200731 -34.782679 8.597908 46.821969 87.660326 43.645039 1.124433 -18.957000 -1.065884 -0.016541 0.517210 -0.002721 -14.631470 -47.761107 17.600461 172.119986 79.043199 167.825065 -1.801048 -16.699546 1.503952 -0.702016 -2.205816 -0.348740
-6.151857 55.404319 27.945291 177.533431 -30.246647 -10.484140 1.160552 15.374502 6.944428 0.472291 8.812363 2.936642 0.642328 11.034343 3.709236 0.440735 8.859826 2.988123 8.241871 25.492726 -1.115617 9.409650 2.406532 -3.144009 -1.011332 3.779415 -2.862665 -12.009550 -8.833875 -0.622697 147.808028 -40.879776 -129.050557 16.491979 -18.985749 -46.317342 -13.119838 5.950593 -2.401550 6.647084 -7.974494 2.720428 -122.628069 -36.904560 142.461895 15.814150 -45.852222 21.220287 -19.181778 -34.761686 8.658082 46.202663 87.672187 43.025910 1.133412 -18.950452 -1.066788 -0.015538 0.516456 -0.002243 -14.678765 -47.749539 17.648508 172.075130 79.018100 167.774867 -1.709076 -16.652447 1.489163 -0.756128 -2.269282 -0.373174
-6.152024 55.403497 27.942984 177.518955 -30.238615 -10.486843 1.157697 15.379551 6.957600 0.470092 8.825844 2.953058 0.638240 11.043511 3.720892 0.427426 8.872986 3.006447 8.235742 25.540131 -1.146188 9.410892 2.452730 -3.181802 -0.983330 3.781541 -2.896772 -11.988594 -8.819674 -0.630170 147.781734 -40.916215 -129.014202 16.491511 -18.970370 -46.271860 -13.110644 5.962724 -2.413066 6.625767 -8.002871 2.691782 -122.577347 -36.902919 142.431624 15.786069 -45.877361 21.142322 -19.181530 -34.768502 8.680864 46.039885 87.682925 42.862587 1.135488 -18.950552 -1.067127 0.004978 0.519973 -0.005730 -14.713498 -47.752779 17.665848 172.100353 79.009688 167.789072 -1.676860 -16.653552 1.479938 -0.763414 -2.280072 -0.363802
-6.154224 55.402258 27.941310 177.513939 -30.230197 -10.486600 1.154717 15.375457 6.960031 0.449783 8.844768 2.968275 0.606755 11.082813 3.761544 0.445006 8.851571 2.975376 8.239126 25.543548 -1.185227 9.413621 2.529466 -3.181195 -0.963207 3.879503 -2.858241 -11.968228 -8.935118 -0.681326 147.753134 -40.961271 -128.972659 16.480477 -18.964559 -46.234658 -13.094190 5.968023 -2.421145 6.625207 -8.035943 2.662087 -122.559823 -36.901557 142.422260 15.763155 -45.877908 21.032893 -19.182225 -34.779031 8.690210 46.030142 87.686642 42.843003 1.174004 -18.947235 -1.072288 -0.024922 0.517575 -0.004010 -14.750181 -47.753616 17.668952 172.151088 79.008107 167.830890 -1.647846 -16.664687 1.463745 -0.757754 -2.275358 -0.360569
-6.160223 55.398227 27.943814 177.510836 -30.196569 -10.469143 1.123700 15.363774 6.945428 0.419833 8.873381 2.987393 0.624677 11.068221 3.748328 0.439783 8.858263 2.980988 8.241472 25.582911 -1.195613 9.428116 2.616368 -3.200042 -0.941098 3.923597 -2.856354 -11.950221 -8.989286 -0.701439 147.719932 -41.003348 -128.934240 16.519310 -19.002287 -46.262116 -13.067583 5.943160 -2.443802 6.585874 -8.009314 2.686320 -122.491627 -36.897858 142.390846 15.742976 -45.907009 21.010548 -19.195045 -34.824490 8.695459 46.000726 87.701306 42.802626 1.177208 -18.943577 -1.067791 -0.022976 0.515454 -0.005000 -14.776817 -47.779906 17.649168 172.232864 79.013280 167.909563 -1.638810 -16.708215 1.440006 -0.725935 -2.236668 -0.345412
-6.163526 55.396524 27.944366 177.500953 -30.187899 -10.466891 1.111085 15.371469 6.948336 0.416887 8.879182 2.992112 0.631340 11.062655 3.744368 0.429020 8.869596 2.990425 8.242002 25.621487 -1.194274 9.441090 2.651717 -3.223192 -0.929731 3.944229 -2.859754 -11.917776 -8.992415 -0.706763 147.672239 -41.024178 -128.902406 16.443636 -18.950723 -46.172179 -13.058636 5.962633 -2.432041 6.562993 -8.015971 2.682829 -122.433380 -36.894610 142.364687 15.733433 -45.933715 20.978512 -19.200586 -34.837040 8.709804 45.707845 87.715494 42.501978 1.196495 -18.937118 -1.068189 -0.024240 0.514398 -0.005199 -14.800585 -47.783556 17.645627 172.272555 79.013624 167.947261 -1.613200 -16.721916 1.424594 -0.721611 -2.228965 -0.339329
-6.167259 55.394796 27.945778 177.491413 -30.179354 -10.463784 1.099778 15.378379 6.952796 0.419157 8.880114 2.991025 0.631605 11.062079 3.744399 0.434159 8.864779 2.984843 8.241987 25.635973 -1.191874 9.446174 2.663722 -3.230605 -0.940730 3.969050 -2.851136 -11.872402 -8.958015 -0.700083 147.616294 -41.008370 -128.876779 16.403105 -18.915837 -46.123253 -13.069803 5.988624 -2.410608 6.553264 -8.016193 2.681165 -122.391738 -36.889311 142.342357 15.737218 -45.953821 20.937935 -19.206049 -34.850652 8.722736 44.945572 87.744208 41.737623 1.220717 -18.928042 -1.070842 -0.026165 0.512000 -0.002031 -14.813032 -47.789038 17.636686 172.284222 79.014376 167.962299 -1.600474 -16.736495 1.410549 -0.711109 -2.219118 -0.332260
-6.169555 55.393573 27.947873 177.478243 -30.173154 -10.467567 1.082445 15.402416 6.962858 0.445796 8.856607 2.985316 0.613014 11.081863 3.756703 0.430172 8.869134 2.987869 8.250421 25.633098 -1.213177 9.450429 2.674230 -3.236201 -0.937725 3.965586 -2.864918 -11.835520 -8.957562 -0.702338 147.557587 -41.026159 -128.838053 16.373366 -18.896722 -46.076427 -13.080288 5.994599 -2.392487 6.572772 -8.022777 2.665788 -122.376576 -36.896231 142.333305 15.753057 -45.969150 20.926685 -19.210836 -34.857856 8.739358 44.638841 87.750688 41.430286 1.238713 -18.920885 -1.075058 -0.027019 0.514416 -0.003869 -14.829575 -47.795752 17.633436 172.232899 79.007534 167.920917 -1.585926 -16.740323 1.405527 -0.704125 -2.219819 -0.344063
-6.167686 55.395134 27.947656 177.450159 -30.193075 -10.486730 1.103421 15.429950 6.994637 0.443172 8.861268 2.988953 0.608025 11.085821 3.758588 0.402025 8.887689 3.000077 8.271092 25.632111 -1.236438 9.449070 2.703418 -3.226978 -0.899856 3.941122 -2.893543 -11.808252 -8.948793 -0.700534 147.498657 -41.042895 -128.805352 16.346097 -18.875601 -46.014008 -13.045139 5.959559 -2.407204 6.578841 -8.008051 2.684607 -122.434390 -36.939720 142.306430 15.679632 -45.981885 20.993766 -19.202186 -34.830808 8.772926 44.162095 87.751824 40.956929 1.257959 -18.909426 -1.082678 -0.027924 0.515150 -0.003630 -14.846377 -47.779822 17.651754 172.131791 78.992039 167.830927 -1.539830 -16.707524 1.404239 -0.734886 -2.259563 -0.369132
-6.168232 55.395144 27.949835 177.433172 -30.194145 -10.494283 1.106719 15.439061 7.007755 0.421513 8.876704 2.990378 0.622491 11.079120 3.755881 0.402005 8.887721 2.998289 8.255127 25.644593 -1.226457 9.472556 2.690643 -3.263990 -0.889097 3.934385 -2.900733 -11.786663 -8.943211 -0.699463 147.453874 -41.056525 -128.781944 16.330278 -18.849641 -45.951421 -13.042082 5.940676 -2.404323 6.570255 -7.973448 2.719014 -122.461279 -36.971788 142.355286 15.673175 -45.977381 20.995898 -19.199460 -34.828711 8.798035 43.835592 87.755427 40.637394 1.229761 -18.899365 -1.080929 -0.016823 0.514992 -0.003066 -14.855176 -47.785658 17.656999 172.041821 78.977125 167.747003 -1.515858 -16.690198 1.406916 -0.758786 -2.287797 -0.369040
-6.168873 55.395502 27.951807 177.413794 -30.197624 -10.495676 1.116082 15.446995 7.016280 0.417660 8.881912 2.990434 0.600951 11.094546 3.759719 0.424080 8.874409 2.989594 8.259509 25.638097 -1.232635 9.454926 2.692917 -3.248742 -0.893419 3.936312 -2.899271 -11.770632 -8.948592 -0.701545 147.435888 -41.062203 -128.769364 16.327159 -18.820602 -45.900819 -13.052159 5.921103 -2.396899 6.580390 -7.957537 2.722188 -122.480820 -36.993678 142.364556 15.750808 -45.930057 20.935608 -19.193588 -34.826597 8.812888 43.646574 87.753285 40.449445 1.232246 -18.890022 -1.083472 -0.030381 0.515720 -0.005069 -14.849623 -47.786596 17.644490 171.964470 78.969436 167.688772 -1.496949 -16.687638 1.388022 -0.760543 -2.296194 -0.365251
